<svg width="32" height="32" viewBox="0 0 32 32" fill="none" xmlns="http://www.w3.org/2000/svg">
<g id="_&#229;&#155;&#190;&#229;&#177;&#130;_1" clip-path="url(#clip0_11_695)">
<path id="Vector" d="M16.0001 27.7724C20.4677 27.7724 24.3614 25.2705 26.3557 21.6003L23.3292 18.5741L16.9044 24.9981V4.26474C16.6071 4.23997 16.3057 4.22758 16.0001 4.22758C9.50928 4.22758 4.22412 9.50794 4.22412 15.9979C4.22412 16.5924 4.26954 17.1704 4.35625 17.7402L15.0959 7.00194V27.7353C15.3932 27.7559 15.6946 27.7724 16.0001 27.7724Z" fill="#03FF85"/>
<path id="Vector_2" d="M13.0313 11.985L10.3433 14.6686L13.0313 17.3521V11.985Z" fill="#03FF85"/>
<path id="Vector_3" d="M3.29497 18.8012C3.09677 17.897 2.98529 16.9599 2.98529 15.9979C2.98529 8.82673 8.82374 2.98903 16 2.98903C21.3966 2.98903 26.0377 6.29183 28.0072 10.9818L29.0188 9.97033L30.2534 8.73178C27.6026 3.55464 22.2101 0 16 0C7.17626 0 0 7.17533 0 15.9979C0 17.8269 0.309677 19.5815 0.875355 21.2164L2.19252 19.9035L3.29497 18.8012Z" fill="#03FF85"/>
<path id="Vector_4" d="M18.9688 4.60741V20.015L27.0493 11.9355C25.728 8.35196 22.7097 5.58173 18.9688 4.60741Z" fill="#03FF85"/>
<path id="Vector_5" d="M31.1247 10.7795L29.8075 12.0965L28.7051 13.1988C28.9032 14.103 29.0147 15.036 29.0147 15.9979C29.0147 23.1733 23.1763 29.011 16 29.011C10.6034 29.011 5.96235 25.7082 3.9928 21.0182L2.98118 22.0297L1.75073 23.2641C4.39744 28.4454 9.78996 32 16 32C24.8238 32 32 24.8205 32 15.9979C32 14.169 31.6903 12.4144 31.1247 10.7795Z" fill="#03FF85"/>
<path id="Vector_6" d="M27.7761 15.9979C27.7761 15.4076 27.7306 14.8296 27.6439 14.2598L24.7908 17.1126L27.2269 19.5484C27.582 18.4296 27.7761 17.2365 27.7761 15.9979Z" fill="#03FF85"/>
<path id="Vector_7" d="M4.95068 20.0645C6.27197 23.648 9.2903 26.4183 13.0312 27.3926V20.2709L8.88565 16.1301L4.95068 20.0645Z" fill="#03FF85"/>
</g>
<defs>
<clipPath id="clip0_11_695">
<rect width="32" height="32" fill="white"/>
</clipPath>
</defs>
</svg>
