<svg width="20" height="20" viewBox="0 0 20 20" fill="none" xmlns="http://www.w3.org/2000/svg">
<g id="Component">
<circle id="Ellipse 5" cx="10" cy="10" r="8" fill="#26A17B"/>
<path id="Union" fill-rule="evenodd" clip-rule="evenodd" d="M6 8H9V9.025C6.71776 9.14082 5 9.64526 5 10.25C5 10.8547 6.71776 11.3592 9 11.475V15H11V11.475C13.2822 11.3592 15 10.8547 15 10.25C15 9.64526 13.2822 9.14082 11 9.025V8H14V6H6V8ZM9 9.2223V10.5H11V9.2223C13.004 9.31325 14.5 9.67168 14.5 10.1C14.5 10.2353 14.3506 10.3637 14.083 10.4789C14.0887 10.4833 14.0906 10.4855 14.0906 10.4855C14.0906 10.4855 14.0894 10.4847 14.0874 10.483C14.0861 10.482 14.0846 10.4806 14.0828 10.479C13.3676 10.7867 11.8084 11 10 11C8.19161 11 6.63237 10.7867 5.91716 10.479C5.91258 10.4834 5.90941 10.4855 5.90941 10.4855C5.90941 10.4855 5.91134 10.4833 5.91697 10.4789C5.64938 10.3637 5.5 10.2353 5.5 10.1C5.5 9.67168 6.99601 9.31325 9 9.2223Z" fill="white"/>
</g>
</svg>
