<svg xmlns="http://www.w3.org/2000/svg" width="32" height="32" viewBox="0 0 32 32" fill="none">
          <path d="M25.5808 22.4826C25.2218 23.356 24.7967 24.16 24.3043 24.8992C23.633 25.9069 23.0834 26.6044 22.6598 26.9917C22.0032 27.6275 21.2997 27.9531 20.5464 27.9716C20.0056 27.9716 19.3534 27.8096 18.5942 27.4809C17.8325 27.1538 17.1325 26.9917 16.4925 26.9917C15.8212 26.9917 15.1013 27.1538 14.3312 27.4809C13.56 27.8096 12.9387 27.9809 12.4637 27.9979C11.7413 28.0303 11.0213 27.6954 10.3025 26.9917C9.84376 26.5704 9.26997 25.8482 8.58259 24.8251C7.84508 23.7326 7.23875 22.4656 6.76374 21.0212C6.25502 19.4611 6 17.9503 6 16.4877C6 14.8123 6.34384 13.3673 7.03254 12.1564C7.57379 11.1837 8.29386 10.4165 9.19508 9.85321C10.0963 9.28995 11.0701 9.00292 12.1187 8.98456C12.6925 8.98456 13.445 9.17144 14.38 9.53871C15.3125 9.90722 15.9112 10.0941 16.1737 10.0941C16.3699 10.0941 17.035 9.87558 18.1625 9.43995C19.2288 9.03595 20.1287 8.86867 20.8659 8.93456C22.8636 9.10431 24.3644 9.93345 25.3625 11.4272C23.5758 12.567 22.6921 14.1634 22.7097 16.2113C22.7258 17.8065 23.2754 19.1339 24.3556 20.1879C24.8451 20.6771 25.3918 21.0552 26 21.3237C25.8681 21.7265 25.7289 22.1122 25.5808 22.4826ZM20.9993 3.50016C20.9993 4.75044 20.5654 5.91783 19.7007 6.99835C18.6572 8.28288 17.395 9.02514 16.0262 8.90802C16.0088 8.75802 15.9987 8.60016 15.9987 8.43427C15.9987 7.23399 16.4949 5.94947 17.3762 4.89919C17.8162 4.36742 18.3758 3.92525 19.0544 3.57253C19.7315 3.22507 20.372 3.03292 20.9744 3.00002C20.9919 3.16716 20.9993 3.33431 20.9993 3.50014V3.50016Z" fill="#062A22"/>
        </svg>