<svg xmlns="http://www.w3.org/2000/svg" width="32" height="32" viewBox="0 0 32 32" fill="none">
          <path fill-rule="evenodd" clip-rule="evenodd" d="M12.5915 3.88445C13.6002 3.32108 14.7626 3.00002 16 3.00002C17.2374 3.00002 18.3998 3.32108 19.4085 3.88445L20.1464 3.14646C20.3417 2.9512 20.6583 2.9512 20.8536 3.14646C21.0488 3.34172 21.0488 3.65831 20.8536 3.85357L20.2612 4.44596C21.9266 5.7256 23 7.73745 23 10H9C9 7.73745 10.0734 5.7256 11.7388 4.44596L11.1464 3.85357C10.9512 3.65831 10.9512 3.34172 11.1464 3.14646C11.3417 2.9512 11.6583 2.9512 11.8536 3.14646L12.5915 3.88445ZM14 7.00002C14 7.5523 13.5523 8.00002 13 8.00002C12.4477 8.00002 12 7.5523 12 7.00002C12 6.44773 12.4477 6.00002 13 6.00002C13.5523 6.00002 14 6.44773 14 7.00002ZM19 8.00002C19.5523 8.00002 20 7.5523 20 7.00002C20 6.44773 19.5523 6.00002 19 6.00002C18.4477 6.00002 18 6.44773 18 7.00002C18 7.5523 18.4477 8.00002 19 8.00002Z" fill="#062A22"/>
          <path d="M5 12.5C5 11.6716 5.67157 11 6.5 11C7.32843 11 8 11.6716 8 12.5V18.5C8 19.3284 7.32843 20 6.5 20C5.67157 20 5 19.3284 5 18.5V12.5Z" fill="#062A22"/>
          <path d="M12 24V27.5C12 28.3284 12.6716 29 13.5 29C14.3284 29 15 28.3284 15 27.5V24H17V27.5C17 28.3284 17.6716 29 18.5 29C19.3284 29 20 28.3284 20 27.5V24H21C22.1046 24 23 23.1046 23 22V11H9V22C9 23.1046 9.89543 24 11 24H12Z" fill="#062A22"/>
          <path d="M24 12.5C24 11.6716 24.6716 11 25.5 11C26.3284 11 27 11.6716 27 12.5V18.5C27 19.3284 26.3284 20 25.5 20C24.6716 20 24 19.3284 24 18.5V12.5Z" fill="#062A22"/>
        </svg>