<svg width="24" height="24" viewBox="0 0 24 24" fill="none" xmlns="http://www.w3.org/2000/svg">
<g id="instagram logo">
<g id="Group">
<g id="Group_2">
<path id="Vector" d="M8.66747 12C8.66747 10.1591 10.1594 8.6664 12.0004 8.6664C13.8414 8.6664 15.3341 10.1591 15.3341 12C15.3341 13.8409 13.8414 15.3336 12.0004 15.3336C10.1594 15.3336 8.66747 13.8409 8.66747 12ZM6.86531 12C6.86531 14.836 9.16429 17.1349 12.0004 17.1349C14.8365 17.1349 17.1355 14.836 17.1355 12C17.1355 9.164 14.8365 6.86512 12.0004 6.86512C9.16429 6.86512 6.86531 9.164 6.86531 12ZM16.1387 6.66152C16.1385 7.32426 16.6755 7.86173 17.3383 7.862C18.0011 7.86227 18.5386 7.32522 18.5388 6.66248C18.5391 5.99974 18.002 5.46227 17.3393 5.462C16.6768 5.46231 16.1393 5.99909 16.1387 6.66152ZM7.96024 20.1398C6.98524 20.0954 6.4553 19.933 6.10312 19.7958C5.63623 19.614 5.30309 19.3975 4.95284 19.0478C4.60258 18.698 4.38578 18.3652 4.20481 17.8983C4.06752 17.5463 3.90512 17.0162 3.86079 16.0413C3.81231 14.9872 3.80263 14.6706 3.80263 12.0001C3.80263 9.3296 3.81311 9.01384 3.86079 7.95888C3.9052 6.98392 4.0688 6.45488 4.20481 6.10184C4.38658 5.63496 4.60306 5.30184 4.95284 4.9516C5.30261 4.60136 5.63543 4.38456 6.10312 4.2036C6.45514 4.06632 6.98524 3.90392 7.96024 3.8596C9.01436 3.81112 9.33101 3.80144 12.0004 3.80144C14.6698 3.80144 14.9868 3.81192 16.0418 3.8596C17.0168 3.904 17.5458 4.0676 17.8989 4.2036C18.3658 4.38456 18.6989 4.60184 19.0492 4.9516C19.3994 5.30136 19.6154 5.63496 19.7972 6.10184C19.9345 6.45384 20.0969 6.98392 20.1412 7.95888C20.1897 9.01384 20.1994 9.3296 20.1994 12.0001C20.1994 14.6706 20.1897 14.9863 20.1412 16.0413C20.0968 17.0162 19.9336 17.5462 19.7972 17.8983C19.6154 18.3652 19.3989 18.6983 19.0492 19.0478C18.6994 19.3972 18.3658 19.614 17.8989 19.7958C17.5469 19.933 17.0168 20.0954 16.0418 20.1398C14.9876 20.1882 14.671 20.1979 12.0004 20.1979C9.32981 20.1979 9.01404 20.1882 7.96024 20.1398ZM7.87744 2.06056C6.81283 2.10904 6.08536 2.27784 5.45006 2.52504C4.79211 2.78032 4.23513 3.1228 3.67855 3.67848C3.12196 4.23416 2.78035 4.792 2.52506 5.44992C2.27785 6.0856 2.10904 6.81264 2.06056 7.8772C2.01128 8.94344 2 9.28432 2 12C2 14.7157 2.01128 15.0566 2.06056 16.1228C2.10904 17.1874 2.27785 17.9144 2.52506 18.5501C2.78035 19.2076 3.12204 19.7661 3.67855 20.3215C4.23505 20.877 4.79211 21.219 5.45006 21.475C6.08656 21.7222 6.81283 21.891 7.87744 21.9394C8.94428 21.9879 9.28461 22 12.0004 22C14.7162 22 15.0571 21.9887 16.1234 21.9394C17.188 21.891 17.915 21.7222 18.5507 21.475C19.2083 21.219 19.7657 20.8772 20.3223 20.3215C20.8788 19.7658 21.2197 19.2076 21.4757 18.5501C21.7229 17.9144 21.8926 17.1874 21.9402 16.1228C21.9887 15.0558 22 14.7157 22 12C22 9.28432 21.9887 8.94344 21.9402 7.8772C21.8918 6.81256 21.7229 6.0852 21.4757 5.44992C21.2197 4.7924 20.878 4.23504 20.3223 3.67848C19.7666 3.12192 19.2083 2.78032 18.5515 2.52504C17.915 2.27784 17.188 2.10824 16.1242 2.06056C15.0579 2.01208 14.717 2 12.0012 2C9.28541 2 8.94428 2.01128 7.87744 2.06056Z" fill="#E7DED0"/>
</g>
</g>
</g>
</svg>
