<svg width="33" height="46" viewBox="0 0 33 46" fill="none" xmlns="http://www.w3.org/2000/svg">
<g id="_&#229;&#155;&#190;&#229;&#177;&#130;_1">
<g id="Group">
<g id="Group_2">
<path id="Vector" d="M11.17 19.93L6.04 4.12L3.56 4.34L1.24 20.79L0 20.9L0.22 23.38L5.18 22.95L4.96 20.47L3.72 20.58L4.08 18.05L7.9 17.72L8.69 20.15L7.45 20.26L7.67 22.74L12.63 22.31L12.41 19.83L11.17 19.94V19.93ZM4.43 15.52L5.26 9.60999L7.1 15.29L4.43 15.52Z" fill="#E7DED0"/>
</g>
<g id="Group_3">
<path id="Vector_2" d="M29.17 39.81L24.04 24L21.56 24.22L19.24 40.67L18 40.78L18.22 43.26L23.18 42.83L22.96 40.35L21.72 40.46L22.08 37.93L25.9 37.6L26.69 40.03L25.45 40.14L25.67 42.62L30.63 42.19L30.41 39.71L29.17 39.82V39.81ZM22.43 35.4L23.26 29.49L25.1 35.17L22.43 35.4Z" fill="#E7DED0"/>
</g>
<path id="Vector_3" d="M15.9306 0.996951L12.0537 44.9563L12.6713 45.0108L16.5482 1.05142L15.9306 0.996951Z" fill="#E7DED0"/>
</g>
</g>
</svg>
