<svg width="1176" height="712" viewBox="0 0 1176 712" fill="none" xmlns="http://www.w3.org/2000/svg">
<g filter="url(#filter0_d_178_4164)">
<ellipse cx="616" cy="357" rx="566" ry="306" fill="url(#paint0_radial_178_4164)" shape-rendering="crispEdges"/>
<path d="M1181.5 357C1181.5 441.229 1118.34 517.596 1015.98 572.935C913.645 628.263 772.23 662.5 616 662.5C459.77 662.5 318.355 628.263 216.015 572.935C113.656 517.596 50.5 441.229 50.5 357C50.5 272.771 113.656 196.404 216.015 141.065C318.355 85.7367 459.77 51.5 616 51.5C772.23 51.5 913.645 85.7367 1015.98 141.065C1118.34 196.404 1181.5 272.771 1181.5 357Z" stroke="url(#paint1_linear_178_4164)" shape-rendering="crispEdges"/>
</g>
<defs>
<filter id="filter0_d_178_4164" x="0" y="0" width="1232" height="712" filterUnits="userSpaceOnUse" color-interpolation-filters="sRGB">
<feFlood flood-opacity="0" result="BackgroundImageFix"/>
<feColorMatrix in="SourceAlpha" type="matrix" values="0 0 0 0 0 0 0 0 0 0 0 0 0 0 0 0 0 0 127 0" result="hardAlpha"/>
<feOffset dy="-1"/>
<feGaussianBlur stdDeviation="25"/>
<feComposite in2="hardAlpha" operator="out"/>
<feColorMatrix type="matrix" values="0 0 0 0 0.0117647 0 0 0 0 1 0 0 0 0 0.521569 0 0 0 0.08 0"/>
<feBlend mode="normal" in2="BackgroundImageFix" result="effect1_dropShadow_178_4164"/>
<feBlend mode="normal" in="SourceGraphic" in2="effect1_dropShadow_178_4164" result="shape"/>
</filter>
<radialGradient id="paint0_radial_178_4164" cx="0" cy="0" r="1" gradientUnits="userSpaceOnUse" gradientTransform="translate(616 51) rotate(-180) scale(476 63.2764)">
<stop stop-color="#03FF85" stop-opacity="0.16"/>
<stop offset="0.5" stop-color="#03FF85" stop-opacity="0.02"/>
<stop offset="1" stop-color="#03FF85" stop-opacity="0"/>
</radialGradient>
<linearGradient id="paint1_linear_178_4164" x1="616" y1="51" x2="616" y2="663" gradientUnits="userSpaceOnUse">
<stop stop-color="#03FF85" stop-opacity="0.26"/>
<stop offset="0.0364583" stop-color="#03FF85" stop-opacity="0"/>
</linearGradient>
</defs>
</svg>
