<svg width="151" height="22" viewBox="0 0 151 22" fill="none" xmlns="http://www.w3.org/2000/svg">
<g id="logo" clip-path="url(#clip0_9_9401)">
<path id="Vector" d="M9.38 0.610107L0 21.0901H5.47L7.21 17.3001H14.69L15.76 21.0901H21.23L15.44 0.610107H9.39H9.38ZM8.42 14.6401L11.83 7.21011L13.93 14.6401H8.42Z" fill="#E7DED0"/>
<path id="Vector_2" d="M55.4049 0C50.3449 0 45.9349 3.47 45.5649 7.76L45.0249 13.9C44.6549 18.18 48.4449 21.66 53.5049 21.66C58.5649 21.66 62.9749 18.19 63.3449 13.9L63.8849 7.76C64.2549 3.48 60.4649 0 55.4049 0ZM57.9049 15.18C57.6449 18.14 54.0849 20.32 51.1649 18.1C50.4649 17.56 50.1149 16.68 50.1949 15.76L51.0549 5.91C51.1349 4.99 51.6349 4.1 52.4349 3.57C55.7449 1.34 58.9249 3.52 58.6649 6.49L57.9049 15.2V15.18Z" fill="#E7DED0"/>
<path id="Vector_3" d="M43.2399 0.610068L39.1799 0.570068L29.7099 9.89007L30.5299 0.610068H25.1899L23.3999 21.0901H28.7299L29.3299 14.3101L31.7899 11.8901L35.8099 21.0501H42.3599L36.2499 7.50007L43.2399 0.610068Z" fill="#E7DED0"/>
<path id="Vector_4" d="M67.8198 0.609863L66.0298 21.0899H82.7098L82.9398 18.4299H71.5898L72.1498 12.0399H82.4998L82.7398 9.37986H72.3798L72.9198 3.26986H84.2698L84.4998 0.609863H67.8198Z" fill="#E7DED0"/>
</g>
<defs>
<clipPath id="clip0_9_9401">
<rect width="150.09" height="21.65" fill="white"/>
</clipPath>
</defs>
</svg>
