<svg class="xl:mr-[40px] md:mr-[20px] sm:mr-[20px]" xmlns="http://www.w3.org/2000/svg" width="24" height="24" viewBox="0 0 24 24" fill="none">
              <path d="M19.9671 4.52508C22.566 8.4445 23.8495 12.8655 23.3697 17.9551C23.3677 17.9766 23.3568 17.9964 23.3395 18.0094C21.3714 19.4917 19.4645 20.3913 17.5844 20.9879C17.5698 20.9924 17.5541 20.9922 17.5396 20.9872C17.5251 20.9821 17.5125 20.9726 17.5036 20.9599C17.0692 20.34 16.6746 19.6864 16.3288 19.0001C16.309 18.9597 16.3271 18.911 16.368 18.8951C16.9947 18.6529 17.5908 18.3625 18.1641 18.0188C18.2092 17.9917 18.2121 17.9253 18.1704 17.8934C18.0487 17.8008 17.9282 17.7034 17.8128 17.606C17.7913 17.588 17.7622 17.5845 17.7378 17.5966C14.0158 19.3595 9.93863 19.3595 6.17269 17.5966C6.14824 17.5854 6.11918 17.5892 6.09818 17.6069C5.98312 17.7043 5.86231 17.8008 5.74178 17.8934C5.70007 17.9253 5.70353 17.9917 5.74897 18.0188C6.32227 18.3561 6.91828 18.6529 7.54421 18.8963C7.58477 18.9122 7.60404 18.9597 7.58391 19.0001C7.24563 19.6873 6.85097 20.3408 6.40856 20.9607C6.38929 20.9858 6.35765 20.9973 6.32773 20.9879C4.45655 20.3913 2.5497 19.4917 0.581586 18.0094C0.56519 17.9964 0.553396 17.9757 0.55167 17.9542C0.150683 13.5518 0.967903 9.09419 3.95115 4.52419C3.95834 4.51209 3.96927 4.50265 3.98193 4.49705C5.44982 3.80604 7.02241 3.29767 8.66606 3.00735C8.69597 3.00263 8.72589 3.01679 8.74142 3.04393C8.9445 3.41274 9.17664 3.88571 9.3337 4.27222C11.0662 4.00078 12.8258 4.00078 14.5946 4.27222C14.7516 3.89397 14.9757 3.41274 15.1779 3.04393C15.1851 3.03047 15.1963 3.01968 15.2098 3.01311C15.2234 3.00654 15.2386 3.00452 15.2533 3.00735C16.8978 3.29856 18.4704 3.80693 19.9371 4.49705C19.9501 4.50265 19.9607 4.51209 19.9671 4.52508ZM10.2145 12.8956C10.2326 11.5941 9.30752 10.5172 8.14627 10.5172C6.99451 10.5172 6.07834 11.5847 6.07834 12.8956C6.07834 14.2062 7.01263 15.2737 8.14627 15.2737C9.29832 15.2737 10.2145 14.2062 10.2145 12.8956ZM17.8609 12.8956C17.879 11.5941 16.9539 10.5172 15.7929 10.5172C14.6409 10.5172 13.7247 11.5847 13.7247 12.8956C13.7247 14.2062 14.659 15.2737 15.7929 15.2737C16.9539 15.2737 17.8609 14.2062 17.8609 12.8956Z" fill="#E7DED0"/>
            </svg>