 <svg class="xl:mr-[40px] md:mr-[20px] sm:mr-[20px]" xmlns="http://www.w3.org/2000/svg" width="24" height="24" viewBox="0 0 24 24" fill="none">
              <path d="M12.5055 1.01856C13.7608 1 15.009 1.011 16.2557 1C16.3312 2.40326 16.8592 3.83265 17.934 4.82477C19.0066 5.84163 20.5238 6.3071 22 6.46454V10.1559C20.6166 10.1126 19.2267 9.8376 17.9714 9.26832C17.4247 9.0318 16.9153 8.72722 16.4168 8.41577C16.4103 11.0944 16.4283 13.7696 16.3988 16.4373C16.324 17.7188 15.8816 18.9942 15.1018 20.0503C13.8471 21.8083 11.6695 22.9544 9.43294 22.9902C8.06106 23.0651 6.69062 22.7076 5.52161 22.0489C3.58429 20.9571 2.22104 18.9585 2.02249 16.8133C1.99947 16.3548 1.99155 15.8969 2.01098 15.4493C2.18363 13.705 3.08647 12.0363 4.48784 10.9012C6.07626 9.57908 8.30134 8.9493 10.3847 9.32194C10.4041 10.6798 10.3473 12.0363 10.3473 13.3942C9.39553 13.1 8.28336 13.1825 7.45174 13.7346C6.84457 14.1106 6.38344 14.6868 6.14316 15.3386C5.94461 15.8034 6.00144 16.3197 6.01295 16.8133C6.241 18.3177 7.7546 19.5821 9.37036 19.4452C10.4415 19.4342 11.4681 18.8402 12.0264 17.9705C12.2069 17.6659 12.4091 17.3544 12.4199 16.9962C12.5141 15.3565 12.4767 13.7236 12.4882 12.0838C12.4961 8.38827 12.4767 4.70307 12.5062 1.01925L12.5055 1.01856Z" fill="#E7DED0"/>
            </svg>