<svg width="24" height="24" viewBox="0 0 24 24" fill="none" xmlns="http://www.w3.org/2000/svg">
<g id="youtube logo">
<path id="Vector" d="M9.93971 19.9802C5.36901 19.9003 3.8079 19.8284 2.84834 19.6408C2.19914 19.5161 1.63498 19.2392 1.22133 18.8377C0.901622 18.5338 0.647373 18.0701 0.450119 17.4268C0.280916 16.8909 0.215016 16.445 0.121064 15.3558C-0.022758 12.8976 -0.0570437 10.8878 0.121064 8.64215C0.268003 7.40204 0.339246 5.92989 1.31528 5.07104C1.77613 4.66908 2.31224 4.41041 2.91424 4.30347C3.85465 4.13399 7.86119 4 12.0089 4C16.1472 4 20.1627 4.13399 21.104 4.30347C21.856 4.43746 22.5613 4.83899 22.9754 5.35676C23.866 6.68647 23.8816 8.33994 23.9719 9.6333C24.0093 10.2495 24.0093 13.7488 23.9719 14.365C23.8312 16.4091 23.7181 17.1322 23.3984 17.8821C23.2007 18.3554 23.032 18.6052 22.7399 18.8821C22.2818 19.3081 21.6978 19.5915 21.0657 19.6944C17.1103 19.9768 13.7517 20.0381 9.93971 19.9802ZM15.9967 11.7669C13.7962 10.6507 11.6892 9.61555 9.53541 8.54409V14.9542C11.8018 13.7847 14.1911 12.7133 16.0061 11.758L15.9967 11.7669Z" fill="#E7DED0"/>
</g>
</svg>
